<?xml version="1.0" encoding="UTF-8"?>
<svg xmlns="http://www.w3.org/2000/svg" xmlns:xlink="http://www.w3.org/1999/xlink" width="20pt" height="20pt" viewBox="0 0 20 20" version="1.1">
<g id="surface1">
<path style=" stroke:none;fill-rule:nonzero;fill:rgb(0%,0%,0%);fill-opacity:1;" d="M 18.160156 2.511719 L 1.839844 2.511719 C 0.824219 2.511719 0 3.335938 0 4.351562 C 0 5.367188 0.824219 6.191406 1.839844 6.191406 L 18.160156 6.191406 C 19.175781 6.191406 20 5.367188 20 4.351562 C 20 3.335938 19.175781 2.511719 18.160156 2.511719 Z M 18.160156 2.511719 "/>
<path style=" stroke:none;fill-rule:nonzero;fill:rgb(0%,0%,0%);fill-opacity:1;" d="M 18.160156 8.160156 L 1.839844 8.160156 C 0.824219 8.160156 0 8.984375 0 10 C 0 11.015625 0.824219 11.839844 1.839844 11.839844 L 18.160156 11.839844 C 19.175781 11.839844 20 11.015625 20 10 C 20 8.984375 19.175781 8.160156 18.160156 8.160156 Z M 18.160156 8.160156 "/>
<path style=" stroke:none;fill-rule:nonzero;fill:rgb(0%,0%,0%);fill-opacity:1;" d="M 18.160156 13.808594 L 1.839844 13.808594 C 0.824219 13.808594 0 14.632812 0 15.648438 C 0 16.664062 0.824219 17.488281 1.839844 17.488281 L 18.160156 17.488281 C 19.175781 17.488281 20 16.664062 20 15.648438 C 20 14.632812 19.175781 13.808594 18.160156 13.808594 Z M 18.160156 13.808594 "/>
</g>
</svg>
